<?xml version="1.0" encoding="UTF-8" standalone="no"?>
<!-- Created with Inkscape (http://www.inkscape.org/) -->

<svg
   xmlns:osb="http://www.openswatchbook.org/uri/2009/osb"
   xmlns:dc="http://purl.org/dc/elements/1.1/"
   xmlns:cc="http://creativecommons.org/ns#"
   xmlns:rdf="http://www.w3.org/1999/02/22-rdf-syntax-ns#"
   xmlns:svg="http://www.w3.org/2000/svg"
   xmlns="http://www.w3.org/2000/svg"
   xmlns:xlink="http://www.w3.org/1999/xlink"
   xmlns:sodipodi="http://sodipodi.sourceforge.net/DTD/sodipodi-0.dtd"
   xmlns:inkscape="http://www.inkscape.org/namespaces/inkscape"
   width="56.354794mm"
   height="144.66342mm"
   viewBox="0 0 199.68234 512.58693"
   id="svg4307"
   version="1.1"
   inkscape:version="0.92.1 r15371"
   sodipodi:docname="logotxt.svg">
  <defs
     id="defs4309">
    <linearGradient
       inkscape:collect="always"
       id="linearGradient6573">
      <stop
         style="stop-color:#4193a4;stop-opacity:1;"
         offset="0"
         id="stop6569" />
      <stop
         style="stop-color:#543dff;stop-opacity:0.90052354"
         offset="1"
         id="stop6571" />
    </linearGradient>
    <linearGradient
       id="linearGradient6255"
       osb:paint="solid">
      <stop
         style="stop-color:#2460f0;stop-opacity:1;"
         offset="0"
         id="stop6253" />
    </linearGradient>
    <linearGradient
       inkscape:collect="always"
       xlink:href="#linearGradient6573"
       id="linearGradient6575"
       x1="-261.79575"
       y1="-78.64933"
       x2="-257.92557"
       y2="510.38998"
       gradientUnits="userSpaceOnUse"
       gradientTransform="matrix(0.83359509,0,0,0.83359509,-44.019681,-11.248273)" />
  </defs>
  <sodipodi:namedview
     id="base"
     pagecolor="#ffffff"
     bordercolor="#666666"
     borderopacity="1.0"
     inkscape:pageopacity="0.0"
     inkscape:pageshadow="2"
     inkscape:zoom="1.2111882"
     inkscape:cx="86.772843"
     inkscape:cy="227.70371"
     inkscape:document-units="px"
     inkscape:current-layer="layer1"
     showgrid="false"
     fit-margin-top="5"
     fit-margin-left="5"
     fit-margin-right="5"
     fit-margin-bottom="5"
     inkscape:window-width="1598"
     inkscape:window-height="822"
     inkscape:window-x="0"
     inkscape:window-y="26"
     inkscape:window-maximized="1" />
  <metadata
     id="metadata4312">
    <rdf:RDF>
      <cc:Work
         rdf:about="">
        <dc:format>image/svg+xml</dc:format>
        <dc:type
           rdf:resource="http://purl.org/dc/dcmitype/StillImage" />
        <dc:title />
      </cc:Work>
    </rdf:RDF>
  </metadata>
  <g
     inkscape:label="Layer 1"
     inkscape:groupmode="layer"
     id="layer1"
     transform="translate(358.97371,86.095478)">
    <g
       id="g4596">
      <path
         sodipodi:nodetypes="cccccccccccccssccccccsscccccccccccccccccccsccs"
         inkscape:connector-curvature="0"
         id="path4272-7"
         d="m -280.96524,-67.533234 3.64289,79.642963 c -83.85921,10.128585 -56.88301,55.524133 2.3843,72.975705 0.29237,14.314412 1.36215,30.663496 1.80052,48.814726 -52.65851,21.85252 -49.67416,48.83338 2.49957,70.94041 0.36531,15.56872 1.64592,30.87354 2.0843,45.63062 -31.12123,10.99435 -22.93146,34.45259 1.38879,43.45928 0.29237,8.11642 0.58365,15.06703 0.87593,21.92909 -27.97692,10.56069 -6.16679,23.15689 0.32399,24.75875 -0.18725,17.75897 -0.27465,25.21663 0.0521,25.27161 4.44026,-0.75154 3.74973,-26.65546 4.40731,-42.59313 -1.36061,0.40281 -3.08485,1.0157 -4.40569,1.30738 0.0419,3.81199 0.0128,9.14287 -0.0472,14.99494 -8.08779,-4.10939 -9.15054,-10.10877 -7.74285,-12.92096 3.25669,-6.50598 23.8558,-5.49941 26.55573,-19.59576 1.66716,-8.70429 -3.43456,-13.96346 -10.22945,-18.24303 -0.0733,4.13203 -0.10569,5.79408 -0.25189,9.70473 7.38141,6.2161 0.54808,13.19346 -3.79723,15.40894 0.51144,-13.50276 0.6217,-34.1674 1.13316,-51.65358 -2.70339,0.55673 -5.6882,1.58883 -8.09922,2.57348 0.21918,4.72223 0.71298,14.43409 0.85899,19.00882 -6.53194,-2.77628 -10.68472,-7.00974 -10.53391,-13.36357 0.42649,-17.96761 43.77463,-10.63294 50.10178,-42.94131 2.21386,-11.30463 -13.04284,-23.17855 -26.12126,-30.04059 -0.14601,4.86984 -0.21858,8.62724 -0.3647,13.49707 21.99042,10.69766 12.55461,29.51315 -5.26369,36.70749 0.87676,-30.47339 1.75426,-61.83255 2.63103,-93.92923 -4.82225,2.13976 -10.41459,4.13336 -14.87153,6.27312 0.29238,9.59213 0.93308,19.16219 1.22532,28.97565 -11.98245,-6.05041 -20.62163,-11.71081 -17.99132,-21.4505 6.50275,-23.68414 82.60311,-23.40052 75.73504,-66.86019 -2.19193,-14.093021 -21.36425,-21.236655 -37.80368,-26.254048 l -0.66053,16.252546 c 29.28767,12.030232 13.74057,27.230732 -4.83061,34.582792 0.87677,-35.343298 2.3501,-69.802992 2.7885,-86.552001 -6.68163,-0.82886 -16.7957,-0.985923 -22.78558,0.117515 0.0733,4.205762 0.68134,15.717044 0.97362,29.219792 -83.41007,-36.419444 39.73496,-56.001741 56.59421,-20.329551 11.789,2.966098 46.65183,-1.934124 31.95141,-12.560578 -17.99338,-13.255604 -44.23087,-22.691486 -66.2029,-23.012011 l 2.75192,-79.809946 z m 70.49298,94.959134 c 3.35361,0.03084 10.19461,3.875825 9.46749,5.660952 -4.83824,3.616269 -10.47621,-0.932167 -10.65926,-5.423253 0.30448,-0.168386 0.71269,-0.242109 1.19177,-0.237699 z"
         style="opacity:1;fill:url(#linearGradient6575);fill-opacity:1;fill-rule:nonzero;stroke:#000000;stroke-width:1.56299078;stroke-miterlimit:4;stroke-dasharray:none;stroke-dashoffset:0;stroke-opacity:1" />
      <text
         id="text4590"
         y="400.50586"
         x="-258.35434"
         style="font-style:normal;font-weight:normal;font-size:37.5px;line-height:1.25;font-family:sans-serif;letter-spacing:0px;word-spacing:0px;fill:#0000fe;fill-opacity:0.66666667;stroke:#000000;stroke-width:0.9375;stroke-miterlimit:4;stroke-dasharray:none;stroke-opacity:1"
         xml:space="preserve"><tspan
           style="stroke-width:0.9375"
           id="tspan4588"
           y="400.50586"
           x="-258.35434"
           sodipodi:role="line"><tspan
             id="tspan4586"
             style="text-align:center;text-anchor:middle;fill:#0000fe;fill-opacity:0.66666667;stroke:#000000;stroke-width:0.9375;stroke-miterlimit:4;stroke-dasharray:none;stroke-opacity:1"
             y="400.50586"
             x="-258.35434">Aposcios</tspan></tspan></text>
    </g>
  </g>
</svg>
